<?xml version="1.0" encoding="UTF-8" standalone="no"?>
<!DOCTYPE svg PUBLIC "-//W3C//DTD SVG 1.1//EN" "http://www.w3.org/Graphics/SVG/1.1/DTD/svg11.dtd">
<svg version="1.1" xmlns="http://www.w3.org/2000/svg" xmlns:xlink="http://www.w3.org/1999/xlink" preserveAspectRatio="xMidYMid meet" viewBox="-1 1 27.93993301064307 24" width="23.94" height="20"><defs><path d="M1 2C1.35 2 4.14 2 4.49 2C5.83 2 7.01 2.89 7.38 4.18C7.41 4.3 7.58 4.91 7.9 6C15.72 6 20.07 6 20.94 6C22.89 6 24.32 7.83 23.85 9.73C23.7 10.33 22.5 15.13 22.35 15.73C22.02 17.06 20.82 18 19.44 18C18.65 18 12.3 18 11.51 18C10.17 18 8.99 17.11 8.62 15.82C8.31 14.71 5.77 5.84 5.45 4.73C5.33 4.3 4.94 4 4.49 4C4.14 4 1.35 4 1 4C0.45 4 0 3.55 0 3C0 2.45 0.45 2 1 2ZM10.55 15.27C10.67 15.7 11.06 16 11.51 16C12.3 16 18.65 16 19.44 16C19.9 16 20.3 15.69 20.41 15.24C20.56 14.64 21.76 9.84 21.91 9.24C22.07 8.61 21.59 8 20.94 8C20.11 8 15.95 8 8.47 8C9.72 12.36 10.41 14.79 10.55 15.27ZM11 20C11.1 20 11.9 20 12 20C12.55 20 13 20.45 13 21C13 21.55 12.55 22 12 22C11.9 22 11.1 22 11 22C10.45 22 10 21.55 10 21C10 20.45 10.45 20 11 20ZM19 20C19.1 20 19.9 20 20 20C20.55 20 21 20.45 21 21C21 21.55 20.55 22 20 22C19.9 22 19.1 22 19 22C18.45 22 18 21.55 18 21C18 20.45 18.45 20 19 20Z" id="emjfVmgMs"></path></defs><g><g><use xlink:href="#emjfVmgMs" opacity="1" fill="#ffffff" fill-opacity="1"></use><g><use xlink:href="#emjfVmgMs" opacity="1" fill-opacity="0" stroke="#000000" stroke-width="1" stroke-opacity="0"></use></g></g></g></svg>