<?xml version="1.0" encoding="UTF-8" standalone="no"?>
<!DOCTYPE svg PUBLIC "-//W3C//DTD SVG 1.1//EN" "http://www.w3.org/Graphics/SVG/1.1/DTD/svg11.dtd">
<svg version="1.1" xmlns="http://www.w3.org/2000/svg" xmlns:xlink="http://www.w3.org/1999/xlink" preserveAspectRatio="xMidYMid meet" viewBox="70.99951177567684 348.0012206789468 33.99999660002027 34.00056437638369" width="30" height="30"><defs><path d="M89.04 378.86C89.17 378.84 89.29 378.83 89.42 378.8C89.29 378.83 89.17 378.84 89.04 378.86Z" id="by8BfQYAN"></path><path d="M89.54 378.78C89.6 378.77 89.66 378.76 89.72 378.75C89.66 378.76 89.6 378.77 89.54 378.78Z" id="f17fdKlay7"></path><path d="M88.27 378.95C88.41 378.93 88.56 378.92 88.71 378.9C88.56 378.92 88.41 378.93 88.27 378.95Z" id="cGgwZCs7d"></path><path d="M88.78 378.89C88.85 378.89 88.92 378.88 89 378.87C88.92 378.88 88.85 378.89 88.78 378.89Z" id="a47xYelMr3"></path><path d="M89.97 378.71C90.02 378.69 90.07 378.68 90.13 378.67C90.07 378.68 90.02 378.69 89.97 378.71Z" id="a29dj6o6tq"></path><path d="M91.01 378.46C91.06 378.44 91.1 378.43 91.14 378.42C91.1 378.43 91.06 378.44 91.01 378.46Z" id="e1I24RXVvb"></path><path d="M90.69 378.54C90.74 378.53 90.79 378.52 90.83 378.5C90.79 378.52 90.74 378.53 90.69 378.54Z" id="a5WX4vW5wN"></path><path d="M90.29 378.64C90.33 378.63 90.38 378.62 90.43 378.6C90.38 378.62 90.33 378.63 90.29 378.64Z" id="e1w30lDHy3"></path><path d="M88.02 378.96C88.1 378.96 88.18 378.95 88.26 378.95C88.18 378.95 88.1 378.96 88.02 378.96Z" id="e5fvP2fxSX"></path><path d="M87.52 378.99C87.68 378.98 87.84 378.98 87.99 378.97C87.84 378.98 87.68 378.98 87.52 378.99Z" id="b26gM0oiy2"></path><path d="M87.26 379C87.35 379 87.43 378.99 87.51 378.99C87.43 378.99 87.35 379 87.26 379Z" id="aFkN7ulW4"></path><path d="M80.83 349.1C78.4 349.21 76.26 349.8 74.53 351.52C71.65 354.41 72.01 358.29 72.01 364C72.01 369.83 71.69 373.63 74.53 376.47C77.43 379.36 81.37 378.99 87 378.99C92.78 378.99 94.78 378.99 96.82 378.2C99.6 377.12 101.7 374.64 101.9 370.17C102.03 367.41 102.03 360.58 101.9 357.82C101.66 352.55 98.83 349.36 93.18 349.1C90.42 348.97 83.59 348.97 80.83 349.1ZM86.97 376.28C80.72 376.28 78.21 376.38 76.38 374.54C74.28 372.45 74.66 369.08 74.66 363.98C74.66 357.07 73.95 352.1 80.88 351.74C82.47 351.68 82.94 351.67 86.95 351.67C86.96 351.67 87 351.7 87.01 351.7C93.67 351.7 98.89 351.01 99.21 357.94C99.28 359.52 99.3 359.99 99.3 363.99C99.29 370.17 99.41 372.69 97.55 374.56C95.66 376.45 93.04 376.28 86.97 376.28Z" id="eNbmXOGJ4"></path><path d="M79.3 364C79.3 368.26 82.75 371.7 87 371.7C91.25 371.7 94.7 368.25 94.7 364C94.7 359.75 91.25 356.3 87 356.3C82.75 356.3 79.3 359.75 79.3 364ZM82 364C82 361.24 84.24 359.01 87 359.01C89.76 359.01 92 361.24 92 364C92 366.76 89.76 369 87 369C84.24 369 82 366.76 82 364Z" id="bVXCS9bHq"></path><path d="M96.81 355.99C96.81 355 96 354.19 95.01 354.19C94.01 354.19 93.21 355 93.21 355.99C93.21 356.99 94.01 357.79 95.01 357.79C96 357.79 96.81 356.99 96.81 355.99Z" id="dfImDHXqJ"></path></defs><g><g><use xlink:href="#by8BfQYAN" opacity="1" fill="#2f3035" fill-opacity="1"></use><g><use xlink:href="#by8BfQYAN" opacity="1" fill-opacity="0" stroke="#6a2727" stroke-width="1" stroke-opacity="0"></use></g></g><g><use xlink:href="#f17fdKlay7" opacity="1" fill="#2f3035" fill-opacity="1"></use><g><use xlink:href="#f17fdKlay7" opacity="1" fill-opacity="0" stroke="#6a2727" stroke-width="1" stroke-opacity="0"></use></g></g><g><use xlink:href="#cGgwZCs7d" opacity="1" fill="#2f3035" fill-opacity="1"></use><g><use xlink:href="#cGgwZCs7d" opacity="1" fill-opacity="0" stroke="#6a2727" stroke-width="1" stroke-opacity="0"></use></g></g><g><use xlink:href="#a47xYelMr3" opacity="1" fill="#2f3035" fill-opacity="1"></use><g><use xlink:href="#a47xYelMr3" opacity="1" fill-opacity="0" stroke="#6a2727" stroke-width="1" stroke-opacity="0"></use></g></g><g><use xlink:href="#a29dj6o6tq" opacity="1" fill="#2f3035" fill-opacity="1"></use><g><use xlink:href="#a29dj6o6tq" opacity="1" fill-opacity="0" stroke="#6a2727" stroke-width="1" stroke-opacity="0"></use></g></g><g><use xlink:href="#e1I24RXVvb" opacity="1" fill="#2f3035" fill-opacity="1"></use><g><use xlink:href="#e1I24RXVvb" opacity="1" fill-opacity="0" stroke="#6a2727" stroke-width="1" stroke-opacity="0"></use></g></g><g><use xlink:href="#a5WX4vW5wN" opacity="1" fill="#2f3035" fill-opacity="1"></use><g><use xlink:href="#a5WX4vW5wN" opacity="1" fill-opacity="0" stroke="#6a2727" stroke-width="1" stroke-opacity="0"></use></g></g><g><use xlink:href="#e1w30lDHy3" opacity="1" fill="#2f3035" fill-opacity="1"></use><g><use xlink:href="#e1w30lDHy3" opacity="1" fill-opacity="0" stroke="#6a2727" stroke-width="1" stroke-opacity="0"></use></g></g><g><use xlink:href="#e5fvP2fxSX" opacity="1" fill="#2f3035" fill-opacity="1"></use><g><use xlink:href="#e5fvP2fxSX" opacity="1" fill-opacity="0" stroke="#6a2727" stroke-width="1" stroke-opacity="0"></use></g></g><g><use xlink:href="#b26gM0oiy2" opacity="1" fill="#2f3035" fill-opacity="1"></use><g><use xlink:href="#b26gM0oiy2" opacity="1" fill-opacity="0" stroke="#6a2727" stroke-width="1" stroke-opacity="0"></use></g></g><g><use xlink:href="#aFkN7ulW4" opacity="1" fill="#2f3035" fill-opacity="1"></use><g><use xlink:href="#aFkN7ulW4" opacity="1" fill-opacity="0" stroke="#6a2727" stroke-width="1" stroke-opacity="0"></use></g></g><g><use xlink:href="#eNbmXOGJ4" opacity="1" fill="#f6da38" fill-opacity="1"></use><g><use xlink:href="#eNbmXOGJ4" opacity="1" fill-opacity="0" stroke="#6a2727" stroke-width="1" stroke-opacity="0"></use></g></g><g><use xlink:href="#bVXCS9bHq" opacity="1" fill="#fae63c" fill-opacity="1"></use><g><use xlink:href="#bVXCS9bHq" opacity="1" fill-opacity="0" stroke="#6a2727" stroke-width="1" stroke-opacity="0"></use></g></g><g><use xlink:href="#dfImDHXqJ" opacity="1" fill="#fad736" fill-opacity="1"></use><g><use xlink:href="#dfImDHXqJ" opacity="1" fill-opacity="0" stroke="#6a2727" stroke-width="1" stroke-opacity="0"></use></g></g></g></svg>